Coordinates
version=1
nRows=18
nColumns=32
inDegrees=yes

Units are S.I. units (second, meters, Newtons, ...)
If the header above contains a line with 'inDegrees', this indicates whether rotational values are in degrees (yes) or radians (no).

endheader
time	pelvis_tilt	pelvis_list	pelvis_rotation	pelvis_tx	pelvis_ty	pelvis_tz	hip_flexion_r	hip_adduction_r	hip_rotation_r	knee_angle_r	knee_adduction_r	med_cond_adduction_r	lat_cond_adduction_r	patella_r_constrained_knee_angle	hip_flexion_l	hip_adduction_l	hip_rotation_l	knee_angle_l	knee_adduction_l	med_cond_adduction_l	lat_cond_adduction_l	patella_l_constrained_knee_angle	lumbar_extension	lumbar_bending	lumbar_rotation	ankle_angle_r	subtalar_angle_r	mtp_angle_r	ankle_angle_l	subtalar_angle_l	mtp_angle_l
      2.53500000	    -11.34441124	     -2.86255787	     -0.56268908	      0.36231763	      0.69741786	     -0.35509390	     22.47681654	      6.83528309	      4.04947794	    -19.59906626	     -4.36976028	      0.00000000	      0.00000000	     -0.34206824	     37.20949601	     -9.61816786	     -0.48322154	    -66.27234865	      5.38968111	     -0.00000000	     -0.00000000	     -1.15667069	     -2.95613422	      5.76583344	     -3.47735477	      5.38560928	      7.40232600	      0.00000000	     -2.84424527	      4.12399181	      0.00000000
      2.54000000	    -11.37426602	     -2.56887404	     -0.86448789	      0.36851421	      0.69835768	     -0.35468582	     21.54711755	      6.62194121	      4.07650381	    -18.77167722	     -4.53807041	     -0.00000000	     -0.00000000	     -0.32762757	     37.78907545	     -9.44945955	     -0.51828447	    -65.02882910	      6.03636703	      0.00000000	      0.00000000	     -1.13496718	     -3.03101300	      5.46236023	     -3.06724658	      5.18465619	      7.44318205	     -0.00000000	     -2.66494593	      3.56618243	     -0.00000000
      2.54500000	    -11.42910852	     -2.28965465	     -1.14810328	      0.37475382	      0.69913798	     -0.35432687	     20.69398510	      6.39777580	      3.96638874	    -18.05329241	     -4.70388571	      0.00000000	      0.00000000	     -0.31508939	     38.36578889	     -9.26786549	     -0.52345295	    -63.71456988	      6.62928818	      0.00000000	      0.00000000	     -1.11202903	     -3.04104944	      5.21722115	     -2.67741535	      5.11459645	      7.82552493	     -0.00000000	     -2.49415201	      3.26539856	     -0.00000000
      2.55000000	    -11.81979665	     -1.81981051	     -1.45524531	      0.38114274	      0.69951818	     -0.35395888	     20.25043531	      5.98103995	      3.82289597	    -17.38069104	     -4.93825582	     -0.00000000	     -0.00000000	     -0.30335028	     39.21644053	     -8.83770157	     -0.82415887	    -62.21418134	      6.92841322	      0.00000000	      0.00000000	     -1.08584231	     -2.30293628	      4.55350118	     -2.30745400	      4.76605557	      7.84144626	      0.00000000	     -2.52610568	      2.92534469	     -0.00000000
      2.55500000	    -11.34221244	     -1.75898581	     -1.80379788	      0.38725635	      0.70048855	     -0.35360823	     18.85498223	      5.97379355	      3.62431026	    -16.81810708	     -5.04501149	     -0.00000000	     -0.00000000	     -0.29353134	     39.20706341	     -9.01834272	     -0.84582671	    -60.93954925	      7.54762008	      0.00000000	      0.00000000	     -1.06359578	     -3.45163312	      4.78889702	     -1.77640825	      5.13598820	      8.32932252	     -0.00000000	     -2.06622925	      2.48188774	      0.00000000
      2.56000000	    -11.32779948	     -1.53193519	     -2.13647782	      0.39351188	      0.70096282	     -0.35330175	     18.00892742	      5.78982683	      3.41464256	    -16.30362297	     -5.17752559	     -0.00000000	     -0.00000000	     -0.28455190	     39.62535676	     -8.88802538	     -0.99526066	    -59.48667245	      7.89305229	      0.00000000	      0.00000000	     -1.03823830	     -3.60910139	      4.63253517	     -1.31715112	      5.25512731	      8.65292058	     -0.00000000	     -1.77860582	      2.03503292	     -0.00000000
      2.56500000	    -11.36188411	     -1.27140156	     -2.45354686	      0.39975581	      0.70118441	     -0.35304097	     17.32371559	      5.55240939	      3.05579728	    -15.96746054	     -5.31737222	     -0.00000000	     -0.00000000	     -0.27868476	     40.10273215	     -8.70551732	     -1.24377194	    -58.02803000	      8.11531504	     -0.00000000	     -0.00000000	     -1.01278018	     -3.64776147	      4.43677632	     -0.82113610	      6.16814654	      9.99736706	      0.00000000	     -1.03524867	      1.58566545	      0.00000000
      2.57000000	    -11.35061154	     -1.08608411	     -2.81673719	      0.40599018	      0.70132373	     -0.35279356	     16.52728979	      5.39235432	      2.91889246	    -15.56358546	     -5.42969134	      0.00000000	      0.00000000	     -0.27163581	     40.52101576	     -8.64022317	     -1.52790530	    -56.56042818	      8.27655746	     -0.00000000	     -0.00000000	     -0.98716570	     -3.80124857	      4.38701995	     -0.43525243	      5.82394021	      9.99615687	     -0.00000000	     -1.19324476	      1.29759941	      0.00000000
      2.57500000	    -11.37175621	     -0.92183217	     -3.21365497	      0.41218917	      0.70131968	     -0.35253922	     15.81654811	      5.27298735	      2.85307202	    -15.23951978	     -5.51996926	      0.00000000	      0.00000000	     -0.26597980	     40.94335219	     -8.60886416	     -1.84651933	    -55.04103757	      8.38532230	     -0.00000000	     -0.00000000	     -0.96064733	     -3.95614652	      4.39909367	     -0.00857899	      5.68834003	      9.91735147	      0.00000000	     -1.22805167	      1.04682007	      0.00000000
      2.58000000	    -11.44000074	     -0.78849995	     -3.53106814	      0.41835331	      0.70105736	     -0.35240404	     15.28370406	      5.15354477	      2.51279768	    -15.15780213	     -5.63887238	      0.00000000	      0.00000000	     -0.26455355	     41.45703149	     -8.52324447	     -2.06453821	    -53.54808557	      8.41151893	      0.00000000	      0.00000000	     -0.93459040	     -3.98148957	      4.39546765	      0.38194792	      6.77489377	     11.27722721	      0.00000000	     -0.58586671	      0.93978629	     -0.00000000
      2.58500000	    -11.51554041	     -0.67636850	     -3.89109732	      0.42446336	      0.70070055	     -0.35226707	     14.71673542	      5.06688828	      2.47230426	    -14.97518117	     -5.69933530	     -0.00000000	     -0.00000000	     -0.26136622	     41.94659605	     -8.48647727	     -2.31691926	    -52.00378409	      8.39788058	      0.00000000	      0.00000000	     -0.90763726	     -4.07261606	      4.48449421	      0.84183600	      6.97359797	     11.24800555	      0.00000000	     -0.49087031	      0.77158636	     -0.00000000
      2.59000000	    -11.60731235	     -0.57595843	     -4.28711469	      0.43057063	      0.70022319	     -0.35217563	     14.21475745	      4.99066776	      2.53342672	    -14.92466523	     -5.74546523	     -0.00000000	     -0.00000000	     -0.26048455	     42.41940456	     -8.46072532	     -2.61181810	    -50.39994599	      8.29405132	     -0.00000000	     -0.00000000	     -0.87964500	     -4.11284511	      4.62269506	      1.19675105	      7.38384658	     11.77277534	      0.00000000	     -0.31066531	      0.71610229	     -0.00000000
      2.59500000	    -11.74014626	     -0.51687517	     -4.65574424	      0.43659980	      0.69957283	     -0.35212127	     13.77469875	      4.96525596	      2.65355196	    -14.87137655	     -5.78771246	     -0.00000000	     -0.00000000	     -0.25955449	     42.95836070	     -8.44471414	     -2.84686135	    -48.80971589	      8.12796193	      0.00000000	      0.00000000	     -0.85189025	     -4.15680087	      4.77843373	      1.62636985	      7.66321047	     11.87849648	     -0.00000000	     -0.23209758	      0.61132807	      0.00000000
      2.60000000	    -11.86113244	     -0.46177344	     -5.08440864	      0.44260691	      0.69889692	     -0.35206264	     13.31344073	      4.95571030	      3.03592570	    -14.81942776	     -5.81762611	      0.00000000	      0.00000000	     -0.25864781	     43.43160918	     -8.44693142	     -3.19374505	    -47.13779940	      7.83263310	      0.00000000	      0.00000000	     -0.82270980	     -4.26496987	      5.00292617	      2.11333039	      7.25940036	     11.06831178	      0.00000000	     -0.55919221	      0.44879365	      0.00000000
      2.60500000	    -12.02727452	     -0.49636662	     -5.43215108	      0.44858079	      0.69803743	     -0.35209523	     12.90828738	      5.04263337	      3.33141945	    -14.76754923	     -5.84817764	     -0.00000000	     -0.00000000	     -0.25774236	     43.99293158	     -8.46421118	     -3.37005430	    -45.49543804	      7.49103632	     -0.00000000	     -0.00000000	     -0.79404519	     -4.29158508	      5.33845028	      2.52012115	      7.17674355	     10.67242666	      0.00000000	     -0.69323096	      0.32017790	     -0.00000000
      2.61000000	    -12.27163019	     -0.43164346	     -5.74966892	      0.45458457	      0.69703206	     -0.35218314	     12.76287074	      5.02248793	      3.40440095	    -15.02616158	     -5.91518872	      0.00000000	      0.00000000	     -0.26225599	     44.57411158	     -8.28566916	     -3.58112269	    -43.70566156	      6.96826788	     -0.00000000	     -0.00000000	     -0.76280770	     -4.14046923	      5.47025448	      2.72705485	      8.59212455	     11.55341399	     -0.00000000	     -0.12380842	      0.23657842	      0.00000000
      2.61500000	    -12.48026579	     -0.39388631	     -6.10166123	      0.46054659	      0.69603782	     -0.35232263	     12.51729292	      5.01902742	      3.72838560	    -15.16935804	     -5.94633424	     -0.00000000	     -0.00000000	     -0.26475524	     45.08968438	     -8.11231274	     -3.88438145	    -41.88467377	      6.27171770	      0.00000000	     -0.00000000	     -0.73102546	     -4.13058714	      5.70091781	      3.24988874	      8.81074304	     11.56791772	      0.00000000	     -0.21887804	      0.14591543	     -0.00000000
      2.62000000	    -12.71770009	     -0.36377541	     -6.45223650	      0.46652641	      0.69496413	     -0.35250643	     12.33281418	      5.01071472	      4.04547351	    -15.36509336	     -5.95006365	      0.00000000	      0.00000000	     -0.26817147	     45.60433261	     -7.91513386	     -4.18914781	    -40.01157322	      5.47106673	     -0.00000000	     -0.00000000	     -0.69833369	     -4.07212114	      5.94161388	      3.59108364	      9.22142880	     11.62506467	      0.00000000	     -0.21019059	      0.03782139	      0.00000000
